<svg width="219" height="323" viewBox="0 0 219 323" fill="none" xmlns="http://www.w3.org/2000/svg">
<path d="M183.26 128.222L171.62 128.232L179.82 150.332H171.57L179.82 175.772H174.45L185.34 194.302H174.34L174.37 194.352L176.27 197.182L179.82 202.482L191.04 219.222H174.33L174.36 219.272L191.03 243.822H175.72L186.85 266.632H175.93L186.85 289.012H175.29V300.682C175.29 312.622 165.61 322.292 153.67 322.292C141.73 322.292 132.05 312.612 132.05 300.682V289.012H120.5L131.34 266.632H120.5L131.55 243.822H84.48L95.6 266.632H84.69L95.6 289.012H84.05V300.682C84.05 312.622 74.37 322.292 62.43 322.292C50.49 322.292 40.81 312.612 40.81 300.682V289.012H29.25L40.1 266.632H29.25L40.31 243.822H25.07L41.66 219.222H25.07L34.46 205.122L38.09 199.662L41.66 194.302H30.6L39.7 173.872C24.22 178.072 17.91 192.362 18.69 202.752C18.69 202.752 10.84 202.872 10.06 202.752C9.17 192.032 11.94 177.212 29.52 168.802C21.45 164.492 13.82 164.272 7.19 172.122C6.86 172.562 6.42 173.002 6.08 173.562L0 167.922C2.1 165.382 4.31 163.052 7.19 161.172C12.61 157.632 20.35 156.202 33.84 160.842C31.4 154.212 28.2 150.232 24.33 147.802C19.8 144.922 14.49 144.372 8.97 144.592L9.19 135.752C24.67 135.862 32.63 140.722 37.06 147.802C40.38 153.112 41.67 162.412 41.67 169.472L85.85 175.912H90.34H86.02L94.3 150.232H86.1L94.23 128.332H84.06L100.28 95.0616H89.27L105.59 62.9916C125.94 19.4216 134.05 -3.08842 148.09 0.341581C154.94 2.00158 157.16 8.86158 156.6 21.5716V21.7516C171.06 11.0316 180.8 6.39158 187.45 12.0516C197.73 20.7916 184.88 38.6116 158.91 74.6616L183.25 80.0016C183.25 80.0016 211.8 86.4316 217.94 102.322C218.38 103.472 218.56 104.702 218.56 105.932C218.58 106.272 218.59 106.602 218.59 106.932C218.59 127.572 183.25 128.212 183.25 128.212L183.26 128.222Z" fill="#00CC92"/>
</svg>
