<svg width="1896" height="475" viewBox="0 0 1896 475" fill="none" xmlns="http://www.w3.org/2000/svg">
<path d="M539 424.43H449.18V78.88H592.16C630.96 78.88 660.67 88.96 681.3 109.13C701.92 129.29 712.23 157.71 712.23 194.37C712.23 231.03 701.92 259.45 681.3 279.61C660.68 299.77 630.96 309.86 592.16 309.86H539V424.43ZM539 237.45H568.79C601.79 237.45 618.28 223.09 618.28 194.37C618.28 165.65 601.78 151.29 568.79 151.29H539V237.45Z" fill="white"/>
<path d="M736.06 99.05C736.06 92.63 737.28 86.6 739.73 80.95C742.17 75.3 745.53 70.34 749.81 66.06C754.08 61.79 759.05 58.43 764.7 55.98C770.35 53.54 776.39 52.31 782.8 52.31C789.21 52.31 795.24 53.53 800.9 55.98C806.55 58.43 811.51 61.79 815.79 66.06C820.06 70.34 823.42 75.3 825.87 80.95C828.31 86.61 829.54 92.64 829.54 99.05C829.54 105.46 828.32 111.5 825.87 117.15C823.42 122.81 820.06 127.77 815.79 132.04C811.51 136.32 806.55 139.68 800.9 142.12C795.24 144.57 789.21 145.79 782.8 145.79C776.39 145.79 770.35 144.57 764.7 142.12C759.04 139.68 754.08 136.32 749.81 132.04C745.53 127.77 742.17 122.8 739.73 117.15C737.28 111.5 736.06 105.46 736.06 99.05ZM824.51 189.33V424.43H741.56V189.33H824.51Z" fill="white"/>
<path d="M870.79 189.33H953.74V219.12C965.04 205.37 976.5 196.13 988.11 191.39C999.72 186.66 1013.32 184.29 1028.9 184.29C1045.4 184.29 1059.53 186.97 1071.29 192.31C1083.05 197.66 1093.06 205.22 1101.31 215C1108.03 222.95 1112.61 231.81 1115.06 241.58C1117.5 251.36 1118.73 262.51 1118.73 275.04V424.44H1035.78V305.74C1035.78 294.13 1034.94 284.74 1033.26 277.55C1031.58 270.38 1028.6 264.65 1024.32 260.36C1020.65 256.69 1016.53 254.1 1011.95 252.57C1007.37 251.04 1002.48 250.28 997.28 250.28C983.22 250.28 972.45 254.48 964.97 262.88C957.48 271.29 953.74 283.27 953.74 298.85V424.42H870.79V189.32V189.33Z" fill="white"/>
<path d="M1335.95 189.33H1419.36V424.43H1335.95V398.31C1318.23 420.62 1294.25 431.76 1264 431.76C1246.89 431.76 1231.15 428.62 1216.8 422.37C1202.43 416.11 1189.91 407.33 1179.22 396.02C1168.52 384.72 1160.2 371.43 1154.24 356.15C1148.28 340.88 1145.3 324.23 1145.3 306.2C1145.3 289.4 1148.2 273.43 1154.01 258.31C1159.81 243.19 1167.91 229.98 1178.3 218.67C1188.68 207.37 1201.06 198.43 1215.42 191.86C1229.78 185.29 1245.67 182.01 1263.08 182.01C1292.41 182.01 1316.7 192.25 1335.95 212.71V189.34V189.33ZM1231.46 306.19C1231.46 313.83 1232.84 320.93 1235.59 327.5C1238.34 334.07 1242.08 339.8 1246.82 344.69C1251.55 349.58 1257.2 353.4 1263.78 356.15C1270.35 358.9 1277.45 360.27 1285.09 360.27C1292.73 360.27 1299.37 358.89 1305.94 356.15C1312.51 353.4 1318.16 349.58 1322.9 344.69C1327.63 339.81 1331.45 334.15 1334.36 327.73C1337.26 321.31 1338.71 314.44 1338.71 307.11C1338.71 299.78 1337.26 292.83 1334.36 286.26C1331.45 279.69 1327.64 273.97 1322.9 269.07C1318.16 264.19 1312.51 260.36 1305.94 257.61C1299.37 254.86 1292.42 253.49 1285.09 253.49C1277.76 253.49 1270.35 254.87 1263.78 257.61C1257.21 260.36 1251.56 264.18 1246.82 269.07C1242.08 273.96 1238.34 279.54 1235.59 285.8C1232.84 292.07 1231.46 298.86 1231.46 306.19Z" fill="white"/>
<path d="M1557.75 258.53V424.43H1474.8V258.53H1447.3V189.33H1474.8V118.75H1557.75V189.33H1604.95V258.53H1557.75Z" fill="white"/>
<path d="M1811.63 189.33H1895.04V424.43H1811.63V398.31C1793.91 420.62 1769.93 431.76 1739.68 431.76C1722.57 431.76 1706.83 428.62 1692.48 422.37C1678.11 416.11 1665.59 407.33 1654.9 396.02C1644.2 384.72 1635.88 371.43 1629.92 356.15C1623.96 340.88 1620.98 324.23 1620.98 306.2C1620.98 289.4 1623.88 273.43 1629.69 258.31C1635.49 243.19 1643.59 229.98 1653.98 218.67C1664.36 207.37 1676.74 198.43 1691.1 191.86C1705.46 185.29 1721.35 182.01 1738.76 182.01C1768.09 182.01 1792.38 192.25 1811.63 212.71V189.34V189.33ZM1707.14 306.19C1707.14 313.83 1708.52 320.93 1711.27 327.5C1714.02 334.07 1717.76 339.8 1722.5 344.69C1727.23 349.58 1732.88 353.4 1739.46 356.15C1746.03 358.9 1753.13 360.27 1760.77 360.27C1768.41 360.27 1775.05 358.89 1781.62 356.15C1788.19 353.4 1793.84 349.58 1798.58 344.69C1803.31 339.81 1807.13 334.15 1810.04 327.73C1812.94 321.31 1814.39 314.44 1814.39 307.11C1814.39 299.78 1812.94 292.83 1810.04 286.26C1807.13 279.69 1803.32 273.97 1798.58 269.07C1793.84 264.19 1788.19 260.36 1781.62 257.61C1775.05 254.86 1768.1 253.49 1760.77 253.49C1753.44 253.49 1746.03 254.87 1739.46 257.61C1732.89 260.36 1727.24 264.18 1722.5 269.07C1717.76 273.96 1714.02 279.54 1711.27 285.8C1708.52 292.07 1707.14 298.86 1707.14 306.19Z" fill="white"/>
<path d="M124.79 392.88L140.87 425.86H43.1099L59.0999 392.88H43.1099L59.4099 359.27H124.48L140.87 392.88H124.79Z" fill="#CE3F8F"/>
<path d="M60.1401 425.86H123.85V443.05C123.85 460.63 109.58 474.9 92.0001 474.9C74.4201 474.9 60.1501 460.63 60.1501 443.05V425.86H60.1401Z" fill="#6D3AC6"/>
<path d="M259.22 392.88L275.31 425.86H177.55L193.53 392.88H177.55L193.84 359.27H258.91L275.31 392.88H259.22Z" fill="#CE3F8F"/>
<path d="M194.57 425.86H258.28V443.05C258.28 460.63 244.01 474.9 226.43 474.9C208.85 474.9 194.58 460.63 194.58 443.05V425.86H194.57Z" fill="#6D3AC6"/>
<path d="M256.9 323.09L281.47 359.27H36.95L61.3899 323.02H36.95L61.3899 286.3H45.09L61.3899 249.7L126.49 259.19L256.9 258.82L273.06 286.3H256.85L256.9 286.37L281.47 323.02H256.85L256.9 323.09Z" fill="#FFDD00"/>
<path d="M56.12 294.2L69.55 306.82L92.36 285.32L114.51 307.31L137.16 285.81L159.81 307.31L181.97 285.32L204.61 306.82L227.42 285.15L231.64 289.37L246.18 303.09L259.7 290.54L264.93 298.35L246.34 316.94L246.23 316.83L227.1 297.86L204.45 320.51L181.8 297.86L159.16 320.51L137 298.35L114.35 319.86L92.36 298.02L69.71 320.67L50.78 302.24" fill="black"/>
<path d="M61.38 249.7C61.38 239.3 59.47 225.59 54.59 217.77C48.07 207.34 36.34 200.17 13.53 200.01L13.2 213.04C21.35 212.71 29.17 213.53 35.85 217.76C41.55 221.34 46.28 227.21 49.86 236.99C29.98 230.15 18.58 232.27 10.59 237.48C6.35 240.25 3.1 243.67 0 247.42L8.96 255.73C9.45 254.92 10.1 254.26 10.59 253.61C20.37 242.04 31.61 242.37 43.5 248.72C17.59 261.1 13.52 282.94 14.82 298.74C15.96 298.9 27.53 298.74 27.53 298.74C26.39 283.42 35.68 262.38 58.49 256.19L61.37 249.7H61.38Z" fill="#6D3AC6"/>
<path d="M264.93 258.99L126.73 259.18L138.93 221.34H126.84L138.93 188.76H252.78L264.93 221.51H252.78L264.93 258.99Z" fill="#1DB9D2"/>
<path d="M270 188.93L123.83 189.09L147.73 140.05H131.51L155.56 92.8L270 117.89V188.93Z" fill="#FFDD00"/>
<path d="M270 188.93V117.89C270 117.89 312.07 127.36 321.12 150.79C321.77 152.48 322.05 154.3 322.05 156.11C323.75 187.96 270.01 188.93 270.01 188.93H270Z" fill="#CE3F8F"/>
<path d="M234.13 110.02C272.42 56.91 291.34 30.64 276.19 17.77C266.25 9.30002 251.63 16.46 229.79 32.75C228.98 50.18 226.03 74.12 220.49 107.03L234.13 110.02Z" fill="#008599"/>
<path d="M218.19 0.49998C197.5 -4.55002 185.54 28.6 155.57 92.8L222.27 107.42C227.81 74.51 230.85 50.43 230.74 31.78C231.55 13.04 228.3 2.93998 218.19 0.49998Z" fill="#1DB9D2"/>
<path d="M225.55 157.83C234.016 157.83 240.88 150.967 240.88 142.5C240.88 134.033 234.016 127.17 225.55 127.17C217.083 127.17 210.22 134.033 210.22 142.5C210.22 150.967 217.083 157.83 225.55 157.83Z" fill="white"/>
<path d="M225.55 149.92C229.648 149.92 232.97 146.598 232.97 142.5C232.97 138.402 229.648 135.08 225.55 135.08C221.452 135.08 218.13 138.402 218.13 142.5C218.13 146.598 221.452 149.92 225.55 149.92Z" fill="black"/>
<path d="M270 186.2V188.93H261.31L242.5 180.79C241.05 180.21 239.14 178.09 239.93 176.56C240.4 175.62 242.28 174.49 245.32 175.68L270 186.19V186.2Z" fill="black"/>
</svg>
